<svg width="24" height="24" viewBox="0 0 24 24" fill="none" xmlns="http://www.w3.org/2000/svg">
<mask id="mask0_4023_17554" style="mask-type:alpha" maskUnits="userSpaceOnUse" x="0" y="0" width="24" height="24">
<path d="M13.5039 2.00098C13.5039 1.17255 12.8323 0.500977 12.0039 0.500977C11.1755 0.500977 10.5039 1.17255 10.5039 2.00098V10.501H2.00391C1.17548 10.501 0.503906 11.1725 0.503906 12.001C0.503906 12.8294 1.17548 13.501 2.00391 13.501H10.5039V22.001C10.5039 22.8294 11.1755 23.501 12.0039 23.501C12.8323 23.501 13.5039 22.8294 13.5039 22.001V13.501H22.0039C22.8323 13.501 23.5039 12.8294 23.5039 12.001C23.5039 11.1725 22.8323 10.501 22.0039 10.501H13.5039V2.00098Z" fill="#006FFD"/>
</mask>
<g mask="url(#mask0_4023_17554)">
<rect x="0.00390625" y="0.000976562" width="24" height="24" fill="#006FFD"/>
</g>
</svg>
