<svg width="24" height="24" viewBox="0 0 24 24" fill="none" xmlns="http://www.w3.org/2000/svg">
<g clip-path="url(#clip0_4023_17619)">
<mask id="mask0_4023_17619" style="mask-type:alpha" maskUnits="userSpaceOnUse" x="2" y="0" width="20" height="25">
<path d="M16.7729 0.0129871C16.7219 -0.0440129 14.8844 0.0354872 13.2854 1.77099C11.6864 3.50499 11.9324 5.49399 11.9684 5.54499C12.0044 5.59599 14.2484 5.67549 15.6809 3.65799C17.1134 1.64049 16.8239 0.0714871 16.7729 0.0129871ZM21.7439 17.6125C21.6719 17.4685 18.2564 15.7615 18.5744 12.4795C18.8924 9.19599 21.0869 8.29599 21.1214 8.19849C21.1559 8.10099 20.2259 7.01349 19.2404 6.46299C18.5168 6.07487 17.716 5.8525 16.8959 5.81199C16.7339 5.80749 16.1714 5.66949 15.0149 5.98599C14.2529 6.19449 12.5354 6.86949 12.0629 6.89649C11.5889 6.92349 10.1789 6.11349 8.66239 5.89899C7.69189 5.71149 6.66289 6.09549 5.92639 6.39099C5.19139 6.68499 3.79339 7.52199 2.81539 9.74649C1.83739 11.9695 2.34889 15.4915 2.71489 16.5865C3.08089 17.68 3.65239 19.4725 4.62439 20.7805C5.48839 22.2565 6.63439 23.281 7.11289 23.629C7.59139 23.977 8.94139 24.208 9.87739 23.7295C10.6304 23.2675 11.9894 23.002 12.5264 23.0215C13.0619 23.041 14.1179 23.2525 15.1994 23.83C16.0559 24.1255 16.8659 24.0025 17.6774 23.6725C18.4889 23.341 19.6634 22.084 21.0344 19.5355C21.5549 18.3505 21.7919 17.71 21.7439 17.6125Z" fill="#006FFD"/>
<path d="M16.7729 0.0129871C16.7219 -0.0440129 14.8844 0.0354872 13.2854 1.77099C11.6864 3.50499 11.9324 5.49399 11.9684 5.54499C12.0044 5.59599 14.2484 5.67549 15.6809 3.65799C17.1134 1.64049 16.8239 0.0714871 16.7729 0.0129871ZM21.7439 17.6125C21.6719 17.4685 18.2564 15.7615 18.5744 12.4795C18.8924 9.19599 21.0869 8.29599 21.1214 8.19849C21.1559 8.10099 20.2259 7.01349 19.2404 6.46299C18.5168 6.07487 17.716 5.8525 16.8959 5.81199C16.7339 5.80749 16.1714 5.66949 15.0149 5.98599C14.2529 6.19449 12.5354 6.86949 12.0629 6.89649C11.5889 6.92349 10.1789 6.11349 8.66239 5.89899C7.69189 5.71149 6.66289 6.09549 5.92639 6.39099C5.19139 6.68499 3.79339 7.52199 2.81539 9.74649C1.83739 11.9695 2.34889 15.4915 2.71489 16.5865C3.08089 17.68 3.65239 19.4725 4.62439 20.7805C5.48839 22.2565 6.63439 23.281 7.11289 23.629C7.59139 23.977 8.94139 24.208 9.87739 23.7295C10.6304 23.2675 11.9894 23.002 12.5264 23.0215C13.0619 23.041 14.1179 23.2525 15.1994 23.83C16.0559 24.1255 16.8659 24.0025 17.6774 23.6725C18.4889 23.341 19.6634 22.084 21.0344 19.5355C21.5549 18.3505 21.7919 17.71 21.7439 17.6125Z" fill="#006FFD"/>
</mask>
<g mask="url(#mask0_4023_17619)">
<rect x="0.00195312" y="0.000976562" width="24" height="24" fill="#006FFD"/>
</g>
</g>
<defs>
<clipPath id="clip0_4023_17619">
<rect width="24" height="24" fill="white" transform="translate(0 0.000976562)"/>
</clipPath>
</defs>
</svg>
