<svg width="24" height="25" viewBox="0 0 24 25" fill="none" xmlns="http://www.w3.org/2000/svg">
<mask id="mask0_4023_17616" style="mask-type:alpha" maskUnits="userSpaceOnUse" x="0" y="0" width="24" height="23">
<path d="M12 9.10449C9.9675 9.10449 8.25 10.822 8.25 12.8545C8.25 14.887 9.9675 16.6045 12 16.6045C14.0325 16.6045 15.75 14.887 15.75 12.8545C15.75 10.822 14.0325 9.10449 12 9.10449Z" fill="#006FFD"/>
<path d="M21.6 4.45449H18.4968L15.2484 1.20609C15.1372 1.09444 15.0049 1.0059 14.8593 0.945555C14.7137 0.885212 14.5576 0.854265 14.4 0.854493H9.6C9.44239 0.854265 9.28629 0.885212 9.14068 0.945555C8.99508 1.0059 8.86285 1.09444 8.7516 1.20609L5.5032 4.45449H2.4C1.0764 4.45449 0 5.53089 0 6.85449V20.0545C0 21.3781 1.0764 22.4545 2.4 22.4545H21.6C22.9236 22.4545 24 21.3781 24 20.0545V6.85449C24 5.53089 22.9236 4.45449 21.6 4.45449ZM12 18.8545C8.748 18.8545 6 16.1065 6 12.8545C6 9.60249 8.748 6.85449 12 6.85449C15.252 6.85449 18 9.60249 18 12.8545C18 16.1065 15.252 18.8545 12 18.8545Z" fill="#006FFD"/>
</mask>
<g mask="url(#mask0_4023_17616)">
<rect y="0.248047" width="24" height="24" fill="#006FFD"/>
</g>
</svg>
