<svg width="24" height="24" viewBox="0 0 24 24" fill="none" xmlns="http://www.w3.org/2000/svg">
<mask id="mask0_4023_17650" style="mask-type:alpha" maskUnits="userSpaceOnUse" x="1" y="1" width="22" height="23">
<path d="M12.0006 1.00098C18.0752 1.00098 22.9993 5.92508 22.9993 11.9996C22.9993 18.0742 18.0752 22.9983 12.0006 22.9983C10.2213 23.0006 8.46816 22.5695 6.89284 21.7422L2.17442 22.9708C2.01676 23.0119 1.85111 23.011 1.69388 22.9683C1.53665 22.9256 1.3933 22.8426 1.27805 22.7275C1.16279 22.6123 1.07962 22.4691 1.03679 22.3119C0.99396 22.1547 0.99295 21.989 1.03386 21.8313L2.26131 17.114C1.43179 15.537 0.999512 13.7815 1.00196 11.9996C1.00196 5.92508 5.92606 1.00098 12.0006 1.00098Z" fill="#006FFD"/>
</mask>
<g mask="url(#mask0_4023_17650)">
<rect y="0.000976562" width="24" height="24" fill="#006FFD"/>
</g>
</svg>
