<svg width="24" height="24" viewBox="0 0 24 24" fill="none" xmlns="http://www.w3.org/2000/svg">
<mask id="mask0_4023_17548" style="mask-type:alpha" maskUnits="userSpaceOnUse" x="1" y="1" width="22" height="22">
<path fill-rule="evenodd" clip-rule="evenodd" d="M1.94325 1.94032C2.52903 1.35453 3.47878 1.35453 4.06457 1.94032L22.0646 19.9403C22.6504 20.5261 22.6504 21.4759 22.0646 22.0616C21.4788 22.6474 20.529 22.6474 19.9432 22.0616L1.94325 4.06164C1.35746 3.47585 1.35746 2.5261 1.94325 1.94032Z" fill="#006FFD"/>
<path fill-rule="evenodd" clip-rule="evenodd" d="M22.0646 1.94032C21.4788 1.35453 20.529 1.35453 19.9432 1.94032L1.94325 19.9403C1.35746 20.5261 1.35746 21.4759 1.94325 22.0616C2.52903 22.6474 3.47878 22.6474 4.06457 22.0616L22.0646 4.06164C22.6504 3.47585 22.6504 2.5261 22.0646 1.94032Z" fill="#006FFD"/>
</mask>
<g mask="url(#mask0_4023_17548)">
<rect x="0.00390625" y="0.000976562" width="24" height="24" fill="#006FFD"/>
</g>
</svg>
