<svg width="24" height="24" viewBox="0 0 24 24" fill="none" xmlns="http://www.w3.org/2000/svg">
<mask id="mask0_4023_17647" style="mask-type:alpha" maskUnits="userSpaceOnUse" x="0" y="1" width="23" height="23">
<path fill-rule="evenodd" clip-rule="evenodd" d="M4 5.25098C3.58579 5.25098 3.25 5.58676 3.25 6.00098V20.001C3.25 20.4152 3.58579 20.751 4 20.751H18C18.4142 20.751 18.75 20.4152 18.75 20.001V13.001C18.75 12.3106 19.3096 11.751 20 11.751C20.6904 11.751 21.25 12.3106 21.25 13.001V20.001C21.25 21.7959 19.7949 23.251 18 23.251H4C2.20507 23.251 0.75 21.7959 0.75 20.001V6.00098C0.75 4.20605 2.20507 2.75098 4 2.75098H11C11.6904 2.75098 12.25 3.31062 12.25 4.00098C12.25 4.69133 11.6904 5.25098 11 5.25098H4Z" fill="#006FFD"/>
<path d="M13.0947 14.3018L20.2425 7.15395L16.8474 3.75886L9.6996 10.9067C9.6012 11.0052 9.5313 11.1285 9.49732 11.2636L8.70508 15.2963L12.737 14.5041C12.8724 14.4702 12.9962 14.4002 13.0947 14.3018ZM22.55 4.84646C22.8384 4.55798 23.0004 4.16677 23.0004 3.75886C23.0004 3.35096 22.8384 2.95975 22.55 2.67127L21.3301 1.45138C21.0416 1.16299 20.6504 1.00098 20.2425 1.00098C19.8346 1.00098 19.4434 1.16299 19.1549 1.45138L17.935 2.67127L21.3301 6.06635L22.55 4.84646Z" fill="#006FFD"/>
</mask>
<g mask="url(#mask0_4023_17647)">
<rect y="0.000976562" width="24" height="24" fill="#006FFD"/>
</g>
</svg>
