<svg width="24" height="24" viewBox="0 0 24 24" fill="none" xmlns="http://www.w3.org/2000/svg">
<mask id="mask0_4023_17570" style="mask-type:alpha" maskUnits="userSpaceOnUse" x="1" y="1" width="22" height="23">
<circle cx="12" cy="12.001" r="11" fill="#D9D9D9"/>
</mask>
<g mask="url(#mask0_4023_17570)">
<rect y="0.000976562" width="24" height="24" fill="#006FFD"/>
</g>
<path d="M9.33497 7.82228C8.91699 7.40429 8.23929 7.40429 7.8213 7.82228C7.40332 8.24027 7.40332 8.91796 7.8213 9.33595L10.4864 12.0011L7.8213 14.6662C7.40332 15.0842 7.40332 15.7619 7.8213 16.1799C8.23929 16.5979 8.91699 16.5979 9.33497 16.1799L12.0001 13.5147L14.6652 16.1799C15.0832 16.5979 15.7609 16.5979 16.1789 16.1799C16.5969 15.7619 16.5969 15.0842 16.1789 14.6662L13.5138 12.0011L16.1789 9.33595C16.5969 8.91796 16.5969 8.24027 16.1789 7.82228C15.7609 7.40429 15.0832 7.40429 14.6652 7.82228L12.0001 10.4874L9.33497 7.82228Z" fill="white"/>
</svg>
