<svg width="24" height="24" viewBox="0 0 24 24" fill="none" xmlns="http://www.w3.org/2000/svg">
<mask id="mask0_4023_17607" style="mask-type:alpha" maskUnits="userSpaceOnUse" x="0" y="0" width="24" height="24">
<path fill-rule="evenodd" clip-rule="evenodd" d="M9.64246 0.5C4.5982 0.5 0.501953 4.55659 0.501953 9.56934C0.501953 14.5821 4.5982 18.6387 9.64246 18.6387C11.5231 18.6387 13.2724 18.0746 14.7264 17.1075L20.6895 23.0214C21.3329 23.6595 22.3743 23.6595 23.0177 23.0214C23.6634 22.3811 23.6634 21.3411 23.0177 20.7007L17.0928 14.8247C18.1567 13.3423 18.783 11.528 18.783 9.56934C18.783 4.55659 14.6867 0.5 9.64246 0.5ZM3.7987 9.56934C3.7987 6.37467 6.41113 3.77783 9.64246 3.77783C12.8738 3.77783 15.4862 6.37467 15.4862 9.56934C15.4862 12.764 12.8738 15.3608 9.64246 15.3608C6.41113 15.3608 3.7987 12.764 3.7987 9.56934Z" fill="#006FFD"/>
</mask>
<g mask="url(#mask0_4023_17607)">
<rect x="0.00195312" width="24" height="24" fill="#006FFD"/>
</g>
</svg>
