<svg width="24" height="24" viewBox="0 0 24 24" fill="none" xmlns="http://www.w3.org/2000/svg">
<mask id="mask0_4023_17644" style="mask-type:alpha" maskUnits="userSpaceOnUse" x="2" y="2" width="20" height="21">
<path d="M8.14132 20.6096L18.1416 10.6093L13.3916 5.85942L3.3914 15.8597C3.25373 15.9975 3.15593 16.17 3.10839 16.359L2 22.001L7.64093 20.8926C7.83033 20.8452 8.00358 20.7473 8.14132 20.6096ZM21.3699 7.38103C21.7733 6.97744 22 6.43011 22 5.85942C22 5.28874 21.7733 4.74141 21.3699 4.33781L19.6632 2.63111C19.2596 2.22764 18.7122 2.00098 18.1416 2.00098C17.5709 2.00098 17.0235 2.22764 16.6199 2.63111L14.9132 4.33781L19.6632 9.08773L21.3699 7.38103Z" fill="#006FFD"/>
</mask>
<g mask="url(#mask0_4023_17644)">
<rect y="0.000976562" width="24" height="24" fill="#006FFD"/>
</g>
</svg>
