<svg width="24" height="24" viewBox="0 0 24 24" fill="none" xmlns="http://www.w3.org/2000/svg">
<g clip-path="url(#clip0_4023_17662)">
<mask id="mask0_4023_17662" style="mask-type:alpha" maskUnits="userSpaceOnUse" x="3" y="0" width="18" height="25">
<path fill-rule="evenodd" clip-rule="evenodd" d="M13.5601 0.0614409C13.8038 0.14657 14.0166 0.315833 14.1676 0.544614C14.3187 0.773396 14.4002 1.04976 14.4001 1.33353V8.00064H19.2001C19.4196 8.00053 19.635 8.06733 19.8227 8.19375C20.0104 8.32018 20.1633 8.5014 20.2648 8.71768C20.3662 8.93396 20.4124 9.17703 20.3982 9.42043C20.3839 9.66382 20.3099 9.89822 20.1841 10.0981L11.7841 23.4323C11.6379 23.6651 11.4287 23.8399 11.187 23.9314C10.9452 24.0229 10.6834 24.0263 10.4398 23.941C10.1961 23.8558 9.98335 23.6864 9.83233 23.4575C9.68132 23.2286 9.59998 22.9521 9.60014 22.6683V16.0012H4.80014C4.58064 16.0013 4.36532 15.9345 4.1776 15.8081C3.98989 15.6816 3.83698 15.5004 3.73551 15.2841C3.63405 15.0679 3.58791 14.8248 3.60213 14.5814C3.61635 14.338 3.69037 14.1036 3.81614 13.9037L12.2161 0.569475C12.3626 0.337175 12.5718 0.162798 12.8135 0.0716764C13.0552 -0.0194449 13.3167 -0.0225632 13.5601 0.0627743V0.0614409Z" fill="#006FFD"/>
</mask>
<g mask="url(#mask0_4023_17662)">
<rect y="0.000976562" width="24" height="24" fill="#006FFD"/>
</g>
</g>
<defs>
<clipPath id="clip0_4023_17662">
<rect width="24" height="24" fill="white" transform="translate(0 0.000976562)"/>
</clipPath>
</defs>
</svg>
