<svg width="24" height="24" viewBox="0 0 24 24" fill="none" xmlns="http://www.w3.org/2000/svg">
<g clip-path="url(#clip0_4023_17635)">
<mask id="mask0_4023_17635" style="mask-type:alpha" maskUnits="userSpaceOnUse" x="0" y="0" width="24" height="25">
<path d="M13.5 12.001C13.5 12.8307 12.8297 13.501 12 13.501C11.1703 13.501 10.5 12.8307 10.5 12.001C10.5 11.1713 11.1703 10.501 12 10.501C12.8297 10.501 13.5 11.1713 13.5 12.001ZM0 12.001C0 5.37285 5.37188 0.000976562 12 0.000976562C18.6281 0.000976562 24 5.37285 24 12.001C24 18.6291 18.6281 24.001 12 24.001C5.37188 24.001 0 18.6291 0 12.001ZM15.2391 14.3775L17.8406 7.61348C18.1922 6.66191 17.2969 5.80879 16.3875 6.16035L9.62344 8.76191C9.225 8.91191 8.91094 9.22598 8.76094 9.62441L6.15937 16.3885C5.80781 17.2979 6.66094 18.1932 7.6125 17.8416L14.3766 15.24C14.775 15.09 15.0891 14.776 15.2391 14.3775Z" fill="black"/>
</mask>
<g mask="url(#mask0_4023_17635)">
<rect width="24" height="24" fill="#006FFD"/>
</g>
</g>
<defs>
<clipPath id="clip0_4023_17635">
<rect width="24" height="24" fill="white" transform="translate(0 0.000976562)"/>
</clipPath>
</defs>
</svg>
