<svg width="24" height="24" viewBox="0 0 24 24" fill="none" xmlns="http://www.w3.org/2000/svg">
<mask id="mask0_4023_17610" style="mask-type:alpha" maskUnits="userSpaceOnUse" x="0" y="3" width="24" height="18">
<path d="M12 8.72843C11.132 8.72843 10.2996 9.07323 9.68583 9.68699C9.07208 10.3007 8.72727 11.1332 8.72727 12.0012C8.72727 12.8691 9.07208 13.7016 9.68583 14.3153C10.2996 14.9291 11.132 15.2739 12 15.2739C12.868 15.2739 13.7004 14.9291 14.3142 14.3153C14.9279 13.7016 15.2727 12.8691 15.2727 12.0012C15.2727 11.1332 14.9279 10.3007 14.3142 9.68699C13.7004 9.07323 12.868 8.72843 12 8.72843ZM12 17.4557C10.5534 17.4557 9.16598 16.881 8.14305 15.8581C7.12013 14.8352 6.54545 13.4478 6.54545 12.0012C6.54545 10.5545 7.12013 9.16713 8.14305 8.14421C9.16598 7.12128 10.5534 6.54661 12 6.54661C13.4466 6.54661 14.834 7.12128 15.8569 8.14421C16.8799 9.16713 17.4545 10.5545 17.4545 12.0012C17.4545 13.4478 16.8799 14.8352 15.8569 15.8581C14.834 16.881 13.4466 17.4557 12 17.4557ZM12 3.81934C6.69818 3.81934 1.94182 7.09206 0 12.0012C2.60727 18.6339 10.0909 21.8848 16.7236 19.2775C20.0509 17.9684 22.6909 15.3393 24 12.0012C22.0582 7.09206 17.3018 3.81934 12 3.81934Z" fill="#006FFD"/>
</mask>
<g mask="url(#mask0_4023_17610)">
<rect y="0.000976562" width="24" height="24" fill="#006FFD"/>
</g>
</svg>
