<svg width="24" height="24" viewBox="0 0 24 24" fill="none" xmlns="http://www.w3.org/2000/svg">
<mask id="mask0_4023_17628" style="mask-type:alpha" maskUnits="userSpaceOnUse" x="0" y="1" width="24" height="22">
<path fill-rule="evenodd" clip-rule="evenodd" d="M22.7194 3.88192C23.2076 3.39376 23.2076 2.6023 22.7194 2.11415C22.2312 1.626 21.4398 1.62601 20.9516 2.11417L2.95204 20.1142C2.46389 20.6023 2.4639 21.3938 2.95206 21.8819C3.44022 22.3701 4.23168 22.3701 4.71983 21.8819L7.30918 19.2925C10.2301 20.4324 13.5729 20.5158 16.7236 19.2773C20.0509 17.9682 22.6909 15.3391 24 12.0009C23.1452 9.83983 21.7449 7.99587 19.9928 6.60863L22.7194 3.88192ZM16.9314 9.67004L15.2146 11.3869C15.253 11.5879 15.2727 11.7934 15.2727 12.0009C15.2727 12.8689 14.9279 13.7013 14.3142 14.3151C13.7004 14.9288 12.868 15.2736 12 15.2736C11.7925 15.2736 11.587 15.2539 11.3861 15.2155L9.66924 16.9324C10.3912 17.2736 11.1862 17.4555 12 17.4555C13.4466 17.4555 14.834 16.8808 15.8569 15.8579C16.8799 14.8349 17.4545 13.4475 17.4545 12.0009C17.4545 11.1871 17.2727 10.392 16.9314 9.67004ZM12 3.81909C13.3905 3.81909 14.7434 4.04419 16.0179 4.46488L13.6734 6.8094C13.1376 6.63667 12.5735 6.54636 12 6.54636C10.5534 6.54636 9.16598 7.12104 8.14305 8.14396C7.12013 9.16689 6.54545 10.5543 6.54545 12.0009C6.54545 12.5744 6.63577 13.1386 6.80853 13.6745L3.50006 16.983C1.99866 15.6699 0.780715 13.987 0 12.0009C1.94182 7.09182 6.69818 3.81909 12 3.81909ZM9.68583 9.68674C10.2391 9.13343 10.9702 8.79871 11.7447 8.73814L8.73723 11.7457C8.79778 10.9711 9.13251 10.2401 9.68583 9.68674Z" fill="#006FFD"/>
</mask>
<g mask="url(#mask0_4023_17628)">
<rect y="0.000976562" width="24" height="24" fill="#006FFD"/>
</g>
</svg>
