<svg width="24" height="24" viewBox="0 0 24 24" fill="none" xmlns="http://www.w3.org/2000/svg">
<mask id="mask0_4023_17659" style="mask-type:alpha" maskUnits="userSpaceOnUse" x="2" y="3" width="20" height="19">
<path fill-rule="evenodd" clip-rule="evenodd" d="M2 4.50098C2 4.10315 2.15051 3.72162 2.41842 3.44032C2.68633 3.15901 3.04969 3.00098 3.42857 3.00098H20.5714C20.9503 3.00098 21.3137 3.15901 21.5816 3.44032C21.8495 3.72162 22 4.10315 22 4.50098C22 4.8988 21.8495 5.28033 21.5816 5.56164C21.3137 5.84294 20.9503 6.00098 20.5714 6.00098H3.42857C3.04969 6.00098 2.68633 5.84294 2.41842 5.56164C2.15051 5.28033 2 4.8988 2 4.50098ZM5.14792 12.001C5.14792 11.6032 5.29843 11.2216 5.56634 10.9403C5.83425 10.659 6.19762 10.501 6.5765 10.501H17.493C17.8719 10.501 18.2352 10.659 18.5031 10.9403C18.771 11.2216 18.9215 11.6032 18.9215 12.001C18.9215 12.3988 18.771 12.7803 18.5031 13.0616C18.2352 13.3429 17.8719 13.501 17.493 13.501H6.5765C6.19762 13.501 5.83425 13.3429 5.56634 13.0616C5.29843 12.7803 5.14792 12.3988 5.14792 12.001ZM8.81964 19.6993C8.81964 19.3015 8.97015 18.92 9.23806 18.6387C9.50597 18.3573 9.86933 18.1993 10.2482 18.1993H13.8241C14.2029 18.1993 14.5663 18.3573 14.8342 18.6387C15.1021 18.92 15.2526 19.3015 15.2526 19.6993C15.2526 20.0971 15.1021 20.4787 14.8342 20.76C14.5663 21.0413 14.2029 21.1993 13.8241 21.1993H10.2482C9.86933 21.1993 9.50597 21.0413 9.23806 20.76C8.97015 20.4787 8.81964 20.0971 8.81964 19.6993Z" fill="#006FFD"/>
</mask>
<g mask="url(#mask0_4023_17659)">
<rect x="0.00390625" width="24" height="24" fill="#006FFD"/>
</g>
</svg>
