<svg width="24" height="24" viewBox="0 0 24 24" fill="none" xmlns="http://www.w3.org/2000/svg">
<mask id="mask0_4023_17622" style="mask-type:alpha" maskUnits="userSpaceOnUse" x="1" y="1" width="22" height="23">
<path d="M22.567 9.9382C22.7044 10.6746 22.7793 11.4445 22.7793 12.2479C22.7793 18.5324 18.5733 23.001 12.2207 23.001C10.776 23.0014 9.34544 22.7172 8.01066 22.1645C6.67588 21.6119 5.46308 20.8017 4.44155 19.7801C3.42001 18.7586 2.60978 17.5458 2.05713 16.211C1.50449 14.8762 1.22026 13.4456 1.2207 12.001C1.22026 10.5563 1.50449 9.12572 2.05713 7.79094C2.60978 6.45616 3.42001 5.24335 4.44155 4.22182C5.46308 3.20029 6.67588 2.39005 8.01066 1.83741C9.34544 1.28476 10.776 1.00054 12.2207 1.00098C15.1908 1.00098 17.6727 2.09383 19.5768 3.86831L16.4759 6.96918V6.96136C15.3216 5.86181 13.8566 5.2975 12.2207 5.2975C8.59128 5.2975 5.64126 8.36374 5.64126 11.9943C5.64126 15.6237 8.59128 18.6966 12.2207 18.6966C15.5138 18.6966 17.7553 16.8138 18.2157 14.228H12.2207V9.9382H22.5681H22.567Z" fill="#006FFD"/>
</mask>
<g mask="url(#mask0_4023_17622)">
<rect x="0.00195312" y="0.000976562" width="24" height="24" fill="#006FFD"/>
</g>
</svg>
