<svg width="24" height="24" viewBox="0 0 24 24" fill="none" xmlns="http://www.w3.org/2000/svg">
<mask id="mask0_4023_17589" style="mask-type:alpha" maskUnits="userSpaceOnUse" x="0" y="1" width="24" height="22">
<path d="M6.75 1.38867C3.17257 1.38867 0.25 4.2632 0.25 7.83617C0.25 9.17596 0.519753 11.3531 2.00687 13.933C3.48987 16.5058 6.14418 19.411 10.8078 22.278L10.8127 22.281C11.1704 22.4987 11.5812 22.6139 12 22.6139C12.4188 22.6139 12.8296 22.4987 13.1873 22.281L13.1922 22.278C17.8558 19.411 20.5101 16.5058 21.9931 13.933C23.4802 11.3531 23.75 9.17596 23.75 7.83617C23.75 4.2632 20.8274 1.38867 17.25 1.38867C15.3653 1.38867 13.7707 2.3971 12.7402 3.25127C12.464 3.48015 12.216 3.70826 12 3.92063C11.784 3.70826 11.536 3.48015 11.2598 3.25127C10.2293 2.3971 8.63471 1.38867 6.75 1.38867Z" fill="#006FFD"/>
</mask>
<g mask="url(#mask0_4023_17589)">
<rect y="0.000976562" width="24" height="24" fill="#006FFD"/>
</g>
</svg>
