<svg width="24" height="24" viewBox="0 0 24 24" fill="none" xmlns="http://www.w3.org/2000/svg">
<mask id="mask0_4023_17586" style="mask-type:alpha" maskUnits="userSpaceOnUse" x="0" y="1" width="24" height="22">
<path fill-rule="evenodd" clip-rule="evenodd" d="M0.25 7.83617C0.25 4.2632 3.17257 1.38867 6.75 1.38867C8.63471 1.38867 10.2293 2.3971 11.2598 3.25127C11.536 3.48015 11.784 3.70826 12 3.92063C12.216 3.70826 12.464 3.48015 12.7402 3.25127C13.7707 2.3971 15.3653 1.38867 17.25 1.38867C20.8274 1.38867 23.75 4.2632 23.75 7.83617C23.75 9.17596 23.4802 11.3531 21.9931 13.933C20.5101 16.5058 17.8558 19.411 13.1922 22.278L13.1873 22.281C12.8296 22.4987 12.4188 22.6139 12 22.6139C11.5812 22.6139 11.1704 22.4987 10.8127 22.281L10.8078 22.278C6.14418 19.411 3.48987 16.5058 2.00687 13.933C0.519753 11.3531 0.25 9.17596 0.25 7.83617ZM13.0014 6.53686C12.7654 6.85267 12.3943 7.03867 12 7.03867C11.6062 7.03867 11.2355 6.8531 10.9995 6.53796C10.9992 6.5376 10.9989 6.53723 10.9986 6.53686L10.999 6.53733L10.9995 6.53796L10.9995 6.53807L11 6.53871C11.0001 6.53877 10.9996 6.5381 10.9985 6.53673L10.9858 6.52025C10.9731 6.50388 10.952 6.47707 10.923 6.44131C10.8648 6.36968 10.7753 6.26284 10.6581 6.13255C10.4222 5.87035 10.0816 5.52178 9.66447 5.17607C8.79478 4.45524 7.76434 3.88867 6.75 3.88867C4.52933 3.88867 2.75 5.66774 2.75 7.83617C2.75 8.81373 2.93962 10.5452 4.1728 12.6845C5.39901 14.8118 7.69543 17.4087 12 20.0761C16.3046 17.4087 18.601 14.8118 19.8272 12.6845C21.0604 10.5452 21.25 8.81373 21.25 7.83617C21.25 5.66774 19.4707 3.88867 17.25 3.88867C16.2357 3.88867 15.2052 4.45524 14.3355 5.17607C13.9184 5.52178 13.5778 5.87035 13.3419 6.13255C13.2247 6.26284 13.1352 6.36968 13.077 6.44131C13.048 6.47707 13.0269 6.50388 13.0142 6.52025L13.0015 6.53673C13.0008 6.53764 13.0003 6.53824 13.0001 6.53853L13.0005 6.53807L13.001 6.53733L13.0014 6.53686Z" fill="#006FFD"/>
</mask>
<g mask="url(#mask0_4023_17586)">
<rect y="0.000976562" width="24" height="24" fill="#006FFD"/>
</g>
</svg>
