<svg width="24" height="24" viewBox="0 0 24 24" fill="none" xmlns="http://www.w3.org/2000/svg">
<mask id="mask0_4023_17653" style="mask-type:alpha" maskUnits="userSpaceOnUse" x="0" y="2" width="24" height="21">
<path d="M4 2.00098C2.93913 2.00098 1.92172 2.4224 1.17157 3.17255C0.421427 3.92269 0 4.94011 0 6.00098V6.40298L12 12.865L24 6.40498V6.00098C24 4.94011 23.5786 3.92269 22.8284 3.17255C22.0783 2.4224 21.0609 2.00098 20 2.00098H4ZM24 8.67498L12.474 14.881C12.3283 14.9594 12.1655 15.0005 12 15.0005C11.8345 15.0005 11.6717 14.9594 11.526 14.881L0 8.67498V18.001C0 19.0618 0.421427 20.0793 1.17157 20.8294C1.92172 21.5795 2.93913 22.001 4 22.001H20C21.0609 22.001 22.0783 21.5795 22.8284 20.8294C23.5786 20.0793 24 19.0618 24 18.001V8.67498Z" fill="#006FFD"/>
</mask>
<g mask="url(#mask0_4023_17653)">
<rect width="24" height="24" fill="#006FFD"/>
</g>
</svg>
