<svg width="24" height="24" viewBox="0 0 24 24" fill="none" xmlns="http://www.w3.org/2000/svg">
<mask id="mask0_4023_17560" style="mask-type:alpha" maskUnits="userSpaceOnUse" x="1" y="1" width="22" height="23">
<circle cx="12" cy="12.001" r="11" fill="#D9D9D9"/>
</mask>
<g mask="url(#mask0_4023_17560)">
<rect y="0.000976562" width="24" height="24" fill="#006FFD"/>
</g>
<path fill-rule="evenodd" clip-rule="evenodd" d="M9.63401 10.8145C9.63401 10.2622 10.0817 9.8145 10.634 9.8145H12.0008C12.5531 9.8145 13.0008 10.2622 13.0008 10.8145V15.4713H14.2067C14.7589 15.4713 15.2067 15.919 15.2067 16.4713C15.2067 17.0235 14.7589 17.4713 14.2067 17.4713H9.79492C9.24264 17.4713 8.79492 17.0235 8.79492 16.4713C8.79492 15.919 9.24264 15.4713 9.79492 15.4713H11.0008V11.8145H10.634C10.0817 11.8145 9.63401 11.3668 9.63401 10.8145Z" fill="white"/>
<path d="M13.2334 7.83973C13.2334 8.56239 12.6476 9.14822 11.9249 9.14822C11.2023 9.14822 10.6164 8.56239 10.6164 7.83973C10.6164 7.11708 11.2023 6.53125 11.9249 6.53125C12.6476 6.53125 13.2334 7.11708 13.2334 7.83973Z" fill="white"/>
</svg>
