<svg width="25" height="24" viewBox="0 0 25 24" fill="none" xmlns="http://www.w3.org/2000/svg">
<mask id="mask0_4023_17665" style="mask-type:alpha" maskUnits="userSpaceOnUse" x="1" y="0" width="23" height="23">
<path d="M6.24375 22.001V7.15761H1.52821V22.001H6.24375ZM3.88659 5.12979C5.53098 5.12979 6.55453 3.98999 6.55453 2.56562C6.5239 1.10914 5.53104 0.000976562 3.9178 0.000976562C2.3048 0.000976562 1.25 1.10916 1.25 2.56562C1.25 3.99006 2.2733 5.12979 3.85581 5.12979H3.88659ZM8.85378 22.001H13.5693V13.7117C13.5693 13.2681 13.6 12.8249 13.7245 12.5078C14.0654 11.6214 14.8413 10.7034 16.1439 10.7034C17.8503 10.7034 18.5329 12.0646 18.5329 14.06V22.0009H23.2481V13.4898C23.2481 8.93053 20.9217 6.80913 17.8192 6.80913C15.2754 6.80913 14.1584 8.29682 13.5379 9.31007H13.5694V7.15731H8.85389C8.91577 8.55012 8.85378 22.001 8.85378 22.001Z" fill="black"/>
</mask>
<g mask="url(#mask0_4023_17665)">
<rect x="0.25" y="0.000976562" width="24" height="24" fill="#006FFD"/>
</g>
</svg>
