<svg width="24" height="24" viewBox="0 0 24 24" fill="none" xmlns="http://www.w3.org/2000/svg">
<mask id="mask0_4023_17613" style="mask-type:alpha" maskUnits="userSpaceOnUse" x="0" y="1" width="23" height="23">
<path d="M0.823462 8.44037C0.690283 8.48474 0.572231 8.5656 0.482734 8.67375C0.393238 8.7819 0.33589 8.913 0.317214 9.05213C0.298538 9.19126 0.319284 9.33283 0.377092 9.46076C0.4349 9.58868 0.527448 9.69781 0.644211 9.77574L7.27652 13.4318C7.40013 13.4999 7.54046 13.5318 7.68136 13.5237C7.82227 13.5157 7.95804 13.468 8.07307 13.3862L15.119 8.36188C15.4595 8.13383 15.8668 8.54113 15.6388 8.8816L10.6144 15.9276C10.5326 16.0426 10.485 16.1784 10.4769 16.3193C10.4688 16.4602 10.5007 16.6005 10.5688 16.7241L14.2249 23.3564C14.3028 23.4732 14.412 23.5657 14.5399 23.6235C14.6678 23.6814 14.8094 23.7021 14.9485 23.6834C15.0876 23.6647 15.2187 23.6074 15.3269 23.5179C15.435 23.4284 15.5159 23.3104 15.5603 23.1772L22.4546 2.4943C22.4984 2.36224 22.5047 2.22057 22.4727 2.08515C22.4406 1.94973 22.3716 1.82589 22.2732 1.72748C22.1748 1.62908 22.0509 1.56 21.9155 1.52796C21.7801 1.49592 21.6384 1.50219 21.5063 1.54607L0.823462 8.44037Z" fill="#006FFD"/>
</mask>
<g mask="url(#mask0_4023_17613)">
<rect y="0.000976562" width="24" height="24" fill="#006FFD"/>
</g>
</svg>
