<svg width="24" height="24" viewBox="0 0 24 24" fill="none" xmlns="http://www.w3.org/2000/svg">
<g clip-path="url(#clip0_4023_17527)">
<mask id="mask0_4023_17527" style="mask-type:alpha" maskUnits="userSpaceOnUse" x="0" y="0" width="25" height="24">
<path d="M23.7051 10.1761L21.0225 9.37608C20.837 8.72913 20.582 8.10415 20.2618 7.51208L21.575 5.0561C21.6243 4.96339 21.6424 4.85729 21.6265 4.75352C21.6106 4.64976 21.5617 4.55388 21.4869 4.4801L19.5731 2.56011C19.4992 2.48545 19.4032 2.43656 19.2994 2.42071C19.1955 2.40485 19.0893 2.42288 18.9965 2.47211L16.5541 3.7761C15.9556 3.44063 15.3218 3.17234 14.6643 2.97611L13.8635 0.328121C13.8296 0.230534 13.7656 0.146201 13.6807 0.0872595C13.5958 0.0283181 13.4944 -0.00219138 13.391 0.000122534H10.6844C10.5804 0.000606191 10.4793 0.03423 10.3957 0.0961006C10.3122 0.157971 10.2506 0.24486 10.2199 0.344121L9.41916 2.98411C8.75612 3.17929 8.11689 3.44761 7.51329 3.7841L5.11095 2.48811C5.01815 2.43888 4.91194 2.42085 4.80807 2.43671C4.70421 2.45256 4.60823 2.50145 4.53438 2.57611L2.58848 4.4721C2.51374 4.54588 2.46481 4.64176 2.44894 4.74552C2.43307 4.84928 2.45112 4.95539 2.50039 5.0481L3.79766 7.44809C3.46138 8.04856 3.19281 8.68444 2.99688 9.34408L0.34629 10.1441C0.246931 10.1747 0.159957 10.2363 0.0980256 10.3197C0.0360941 10.4032 0.00243726 10.5042 0.00195312 10.6081V13.3121C0.00243726 13.4159 0.0360941 13.517 0.0980256 13.6004C0.159957 13.6839 0.246931 13.7454 0.34629 13.7761L3.0129 14.576C3.21097 15.2247 3.47949 15.8497 3.81368 16.44L2.50039 18.952C2.45112 19.0447 2.43307 19.1508 2.44894 19.2546C2.46481 19.3584 2.51374 19.4542 2.58848 19.528L4.50235 21.44C4.5762 21.5147 4.67218 21.5636 4.77604 21.5794C4.87991 21.5953 4.98612 21.5772 5.07891 21.528L7.55333 20.208C8.13868 20.5236 8.75612 20.7757 9.39513 20.96L10.1959 23.656C10.2266 23.7553 10.2882 23.8422 10.3717 23.904C10.4553 23.9659 10.5564 23.9995 10.6604 24H13.367C13.471 23.9995 13.5721 23.9659 13.6557 23.904C13.7392 23.8422 13.8008 23.7553 13.8315 23.656L14.6322 20.952C15.2658 20.7667 15.8778 20.5146 16.458 20.2L18.9485 21.528C19.0413 21.5772 19.1475 21.5953 19.2513 21.5794C19.3552 21.5636 19.4512 21.5147 19.525 21.44L21.4389 19.528C21.5136 19.4542 21.5626 19.3584 21.5784 19.2546C21.5943 19.1508 21.5763 19.0447 21.527 18.952L20.1977 16.472C20.5159 15.8902 20.7709 15.276 20.9584 14.64L23.6571 13.8401C23.7564 13.8094 23.8434 13.7479 23.9053 13.6644C23.9673 13.581 24.0009 13.4799 24.0014 13.3761V10.6481C24.0061 10.5486 23.9803 10.45 23.9273 10.3657C23.8743 10.2813 23.7968 10.2151 23.7051 10.1761ZM12.0377 16.4C11.1666 16.4 10.3151 16.142 9.59081 15.6585C8.86653 15.175 8.30202 14.4879 7.96867 13.6839C7.63532 12.8799 7.5481 11.9952 7.71804 11.1417C7.88798 10.2882 8.30745 9.50416 8.9234 8.88881C9.53935 8.27346 10.3241 7.8544 11.1785 7.68463C12.0328 7.51485 12.9184 7.60199 13.7232 7.93501C14.528 8.26804 15.2158 8.83199 15.6998 9.55557C16.1837 10.2791 16.442 11.1298 16.442 12.0001C16.442 13.167 15.978 14.2862 15.152 15.1113C14.3261 15.9365 13.2058 16.4 12.0377 16.4Z" fill="#006FFD"/>
</mask>
<g mask="url(#mask0_4023_17527)">
<rect x="0.00195312" width="24" height="24" fill="#006FFD"/>
</g>
</g>
<defs>
<clipPath id="clip0_4023_17527">
<rect width="24" height="24" fill="white" transform="translate(0.00195312)"/>
</clipPath>
</defs>
</svg>
