<svg width="24" height="24" viewBox="0 0 24 24" fill="none" xmlns="http://www.w3.org/2000/svg">
<mask id="mask0_4023_17604" style="mask-type:alpha" maskUnits="userSpaceOnUse" x="2" y="0" width="20" height="24">
<path fill-rule="evenodd" clip-rule="evenodd" d="M8.66885 1.33811C9.56468 0.495363 10.7642 0.0341797 12.0002 0.0341797C13.2362 0.0341797 14.4358 0.495363 15.3316 1.33811C16.23 2.1833 16.7502 3.34651 16.7502 4.57678V10.3158C16.7502 11.0061 16.1906 11.5658 15.5002 11.5658C14.8099 11.5658 14.2502 11.0061 14.2502 10.3158V4.57678C14.2502 4.06054 14.0329 3.54879 13.6186 3.15901C13.2017 2.76679 12.6208 2.53418 12.0002 2.53418C11.3797 2.53418 10.7988 2.76679 10.3818 3.15901C9.96751 3.54879 9.75022 4.06054 9.75022 4.57678V10.3158C9.75022 11.0061 9.19057 11.5658 8.50022 11.5658C7.80986 11.5658 7.25022 11.0061 7.25022 10.3158V4.57678C7.25022 3.34651 7.77042 2.1833 8.66885 1.33811Z" fill="#006FFD"/>
<path d="M6.11496 7.23136C4.41014 7.23136 2.99507 8.54868 2.87326 10.2491L2.15691 20.2491C2.02213 22.1307 3.51223 23.7314 5.39861 23.7314H18.6018C20.4882 23.7314 21.9783 22.1307 21.8435 20.2491L21.1272 10.2491C21.0053 8.54868 19.5903 7.23136 17.8855 7.23136H6.11496Z" fill="#006FFD"/>
</mask>
<g mask="url(#mask0_4023_17604)">
<rect y="0.000976562" width="24" height="24" fill="#006FFD"/>
</g>
</svg>
