<svg width="24" height="24" viewBox="0 0 24 24" fill="none" xmlns="http://www.w3.org/2000/svg">
<mask id="mask0_4023_17601" style="mask-type:alpha" maskUnits="userSpaceOnUse" x="2" y="0" width="20" height="24">
<path fill-rule="evenodd" clip-rule="evenodd" d="M8.66889 1.30491C9.56473 0.462159 10.7643 0.000976562 12.0003 0.000976562C13.2362 0.000976562 14.4358 0.462159 15.3316 1.30491C16.2301 2.15009 16.7503 3.31331 16.7503 4.54357V11.3021C16.7503 11.9924 16.1906 12.5521 15.5003 12.5521C14.8099 12.5521 14.2503 11.9924 14.2503 11.3021V4.54357C14.2503 4.02734 14.033 3.51558 13.6186 3.1258C13.2017 2.73359 12.6208 2.50098 12.0003 2.50098C11.3797 2.50098 10.7988 2.73359 10.3819 3.1258C9.96755 3.51558 9.75026 4.02734 9.75026 4.54357V11.3021C9.75026 11.9924 9.19062 12.5521 8.50026 12.5521C7.80991 12.5521 7.25026 11.9924 7.25026 11.3021V4.54357C7.25026 3.31331 7.77047 2.15009 8.66889 1.30491Z" fill="#006FFD"/>
<path fill-rule="evenodd" clip-rule="evenodd" d="M2.87326 10.2159C2.99507 8.51547 4.41014 7.19815 6.11496 7.19815H17.8855C19.5903 7.19815 21.0053 8.51547 21.1272 10.2159L21.8435 20.2159C21.9783 22.0975 20.4882 23.6982 18.6018 23.6982H5.39861C3.51223 23.6982 2.02213 22.0975 2.15691 20.2159L2.87326 10.2159ZM6.11496 9.69815C5.72153 9.69815 5.39498 10.0021 5.36687 10.3946L4.65052 20.3946C4.61942 20.8288 4.96329 21.1982 5.39861 21.1982H18.6018C19.0371 21.1982 19.381 20.8288 19.3499 20.3946L18.6335 10.3946C18.6054 10.0021 18.2789 9.69815 17.8855 9.69815H6.11496Z" fill="#006FFD"/>
</mask>
<g mask="url(#mask0_4023_17601)">
<rect y="0.000976562" width="24" height="24" fill="#006FFD"/>
</g>
</svg>
