<svg width="24" height="24" viewBox="0 0 24 24" fill="none" xmlns="http://www.w3.org/2000/svg">
<mask id="mask0_4023_17656" style="mask-type:alpha" maskUnits="userSpaceOnUse" x="0" y="1" width="24" height="22">
<path fill-rule="evenodd" clip-rule="evenodd" d="M5.25643 2.07605C5.73321 1.64262 6.46134 1.64262 6.93812 2.07605L11.3381 6.07605C11.8489 6.54044 11.8866 7.331 11.4222 7.84182C10.9578 8.35264 10.1673 8.39029 9.65643 7.9259L7.34727 5.82667V21.001C7.34727 21.6913 6.78763 22.251 6.09727 22.251C5.40692 22.251 4.84727 21.6913 4.84727 21.001V5.82667L2.53812 7.9259C2.02729 8.39029 1.23673 8.35264 0.772349 7.84182C0.307966 7.331 0.345611 6.54044 0.856433 6.07605L5.25643 2.07605ZM17.9027 1.75098C18.5931 1.75098 19.1527 2.31062 19.1527 3.00098V18.1753L21.4619 16.0761C21.9727 15.6117 22.7633 15.6493 23.2277 16.1601C23.6921 16.671 23.6544 17.4615 23.1436 17.9259L18.7436 21.9259C18.2668 22.3593 17.5387 22.3593 17.0619 21.9259L12.6619 17.9259C12.1511 17.4615 12.1134 16.671 12.5778 16.1601C13.0422 15.6493 13.8328 15.6117 14.3436 16.0761L16.6527 18.1753V3.00098C16.6527 2.31062 17.2124 1.75098 17.9027 1.75098Z" fill="#006FFD"/>
</mask>
<g mask="url(#mask0_4023_17656)">
<rect x="0.00390625" y="0.000976562" width="24" height="24" fill="#006FFD"/>
</g>
</svg>
