<svg width="24" height="24" viewBox="0 0 24 24" fill="none" xmlns="http://www.w3.org/2000/svg">
<mask id="mask0_4023_17592" style="mask-type:alpha" maskUnits="userSpaceOnUse" x="0" y="0" width="24" height="23">
<path fill-rule="evenodd" clip-rule="evenodd" d="M15.6699 9.49967C14.8555 9.38131 14.1515 8.86968 13.7874 8.1316L12 4.50796L10.2126 8.1316C9.84851 8.86968 9.1445 9.38131 8.33006 9.49967L4.32991 10.081L7.22492 12.9035C7.81407 13.4779 8.08286 14.3055 7.94369 15.1164L7.26025 19.099L10.8366 17.2187C11.5649 16.8357 12.4351 16.8357 13.1634 17.2187L16.7397 19.099L16.0563 15.1164C15.9171 14.3055 16.1859 13.4779 16.7751 12.9035L19.6701 10.081L15.6699 9.49967ZM23.2242 8.07129C23.7201 8.14496 24.0658 8.60402 23.9893 9.09991C23.9609 9.29827 23.8674 9.47962 23.7257 9.61847L18.5203 14.6936L19.7501 21.8599C19.8351 22.353 19.5036 22.8206 19.0105 22.9056C18.815 22.9396 18.611 22.9084 18.4353 22.8149L12 19.4315L5.56472 22.8149C5.41511 22.8939 5.24637 22.9294 5.07761 22.9173C4.90886 22.9053 4.74686 22.8462 4.60997 22.7468C4.47308 22.6474 4.36679 22.5116 4.30315 22.3548C4.23951 22.1981 4.22106 22.0266 4.2499 21.8599L5.47971 14.6936L0.274255 9.61847C0.101883 9.45045 0.00326779 9.22086 7.97563e-05 8.98016C-0.00310828 8.73947 0.0893913 8.50735 0.257253 8.33482C0.396103 8.19313 0.577458 8.09962 0.775815 8.07129L7.97051 7.02566L11.1867 0.505381C11.4106 0.0576605 11.9547 -0.126528 12.4024 0.0944982C12.5809 0.182342 12.7254 0.326859 12.8133 0.505381L16.0295 7.02566L23.2242 8.07129Z" fill="#006FFD"/>
</mask>
<g mask="url(#mask0_4023_17592)">
<rect y="0.000976562" width="24" height="24" fill="#006FFD"/>
</g>
</svg>
