<svg width="24" height="24" viewBox="0 0 24 24" fill="none" xmlns="http://www.w3.org/2000/svg">
<g clip-path="url(#clip0_4023_17595)">
<mask id="mask0_4023_17595" style="mask-type:alpha" maskUnits="userSpaceOnUse" x="0" y="0" width="24" height="23">
<path d="M23.2244 8.07137L16.0296 7.02574L12.8134 0.505386C12.7256 0.326863 12.581 0.182344 12.4025 0.0944993C11.9548 -0.12653 11.4107 0.0576611 11.1868 0.505386L7.9706 7.02574L0.775824 8.07137C0.577465 8.09971 0.396107 8.19322 0.257256 8.33491C0.0893923 8.50744 -0.00310831 8.73956 7.97572e-05 8.98026C0.00326783 9.22096 0.101884 9.45055 0.274258 9.61858L5.47977 14.6937L4.24994 21.8602C4.2211 22.0269 4.23955 22.1983 4.30319 22.3551C4.36684 22.5118 4.47313 22.6476 4.61002 22.7471C4.74691 22.8465 4.90891 22.9056 5.07767 22.9176C5.24642 22.9296 5.41517 22.8941 5.56478 22.8151L12.0001 19.4317L18.4355 22.8151C18.6112 22.9086 18.8152 22.9398 19.0107 22.9058C19.5038 22.8208 19.8353 22.3532 19.7503 21.8602L18.5205 14.6937L23.726 9.61858C23.8677 9.47972 23.9612 9.29837 23.9895 9.10001C24.066 8.60411 23.7203 8.14505 23.2244 8.07137Z" fill="#006FFD"/>
</mask>
<g mask="url(#mask0_4023_17595)">
<rect y="0.000976562" width="24" height="24" fill="#006FFD"/>
</g>
</g>
<defs>
<clipPath id="clip0_4023_17595">
<rect width="24" height="24" fill="white" transform="translate(0 0.000976562)"/>
</clipPath>
</defs>
</svg>
