<svg width="24" height="24" viewBox="0 0 24 24" fill="none" xmlns="http://www.w3.org/2000/svg">
<mask id="mask0_4023_17641" style="mask-type:alpha" maskUnits="userSpaceOnUse" x="0" y="1" width="24" height="22">
<path d="M2.84846 4.15672H21.1515C21.8706 4.15672 22.4589 3.5684 22.4589 2.84935C22.4589 2.13031 21.8706 1.54199 21.1515 1.54199H2.84846C2.12941 1.54199 1.5411 2.13031 1.5411 2.84935C1.5411 3.5684 2.12941 4.15672 2.84846 4.15672ZM22.6681 6.50997C22.5504 5.90858 22.0144 5.46408 21.3869 5.46408H2.61314C1.9856 5.46408 1.44958 5.90858 1.33192 6.50997L0.0245582 13.0468C-0.132325 13.8573 0.482135 14.6156 1.30577 14.6156H1.5411V21.1524C1.5411 21.8715 2.12941 22.4598 2.84846 22.4598H13.3074C14.0264 22.4598 14.6147 21.8715 14.6147 21.1524V14.6156H19.8442V21.1524C19.8442 21.8715 20.4325 22.4598 21.1515 22.4598C21.8706 22.4598 22.4589 21.8715 22.4589 21.1524V14.6156H22.6942C23.5179 14.6156 24.1323 13.8573 23.9754 13.0468L22.6681 6.50997ZM12 19.8451H4.15582V14.6156H12V19.8451Z" fill="black"/>
</mask>
<g mask="url(#mask0_4023_17641)">
<rect width="24" height="24" fill="#006FFD"/>
</g>
</svg>
