<svg width="24" height="24" viewBox="0 0 24 24" fill="none" xmlns="http://www.w3.org/2000/svg">
<mask id="mask0_4023_17575" style="mask-type:alpha" maskUnits="userSpaceOnUse" x="1" y="1" width="22" height="23">
<circle cx="12" cy="12.001" r="11" fill="#D9D9D9"/>
</mask>
<g mask="url(#mask0_4023_17575)">
<rect y="0.000976562" width="24" height="24" fill="#006FFD"/>
</g>
<path d="M11.4484 6.06146C11.6227 5.98471 11.8111 5.94515 12.0015 5.94531C12.1918 5.94536 12.3801 5.98507 12.5542 6.06191C12.7283 6.13876 12.8845 6.25105 13.0128 6.39162C13.141 6.53219 13.2386 6.69796 13.2993 6.87835C13.3599 7.05874 13.3823 7.24979 13.365 7.43931L12.819 13.4483C12.7978 13.6503 12.7025 13.8373 12.5516 13.9733C12.4006 14.1092 12.2047 14.1844 12.0015 14.1844C11.7984 14.1844 11.6025 14.1092 11.4515 13.9733C11.3005 13.8373 11.2053 13.6503 11.184 13.4483L10.6365 7.43931C10.6192 7.24966 10.6416 7.05848 10.7024 6.87799C10.7631 6.6975 10.8609 6.53166 10.9893 6.39106C11.1178 6.25047 11.2741 6.13821 11.4484 6.06146Z" fill="white"/>
<path d="M13.3101 16.7491C13.3101 17.4717 12.7242 18.0576 12.0016 18.0576C11.2789 18.0576 10.6931 17.4717 10.6931 16.7491C10.6931 16.0264 11.2789 15.4406 12.0016 15.4406C12.7242 15.4406 13.3101 16.0264 13.3101 16.7491Z" fill="white"/>
</svg>
